# xmcd CD database file
#
# Track frame offsets:
#	150
#	9339
#	30300
#	52946
#	72135
#	91890
#	106910
#	122358
#	142208
#	164375
#	178087
#	192836
#	200102
#
# Disc length: 2893 seconds
#
# Revision: 1
# Processed by: cddbd v1.5.2PL0 Copyright (c) Steve Scherf et al.
# Submitted via: CDex 1.79
#
DISCID=a80b4b0d
DTITLE=Jukka Perko and Iiro Rantala - It takes two to tango
DYEAR=2015
DGENRE=Jazz
TTITLE0=My sweethaeart is beautiful
TTITLE1=jealousy
TTITLE2=Just say I love her
TTITLE3=For mama
TTITLE4=Therefore I am sad
TTITLE5=romance
TTITLE6=a blessing
TTITLE7=I will
TTITLE8=stella by starlight
TTITLE9=love is so beautiful
TTITLE10=good intentions
TTITLE11=finlandia (piano solo version)
TTITLE12=finlandia (duo version)
EXTD=YEAR: 2015
EXTT0=
EXTT1=
EXTT2=
EXTT3=
EXTT4=
EXTT5=
EXTT6=
EXTT7=
EXTT8=
EXTT9=
EXTT10=
EXTT11=
EXTT12=
PLAYORDER=
